<?xml version="1.0" encoding="utf-8"?>
<!-- Generator: Adobe Illustrator 26.3.1, SVG Export Plug-In . SVG Version: 6.00 Build 0)  -->
<svg version="1.1" id="Layer_1" xmlns="http://www.w3.org/2000/svg" xmlns:xlink="http://www.w3.org/1999/xlink" x="0px" y="0px"
	 viewBox="0 0 516 461" style="enable-background:new 0 0 516 461;" xml:space="preserve">
<style type="text/css">
	.st0{fill:#4F46E5;}
</style>
<circle class="st0" cx="509" cy="7.1" r="6.6"/>
<circle class="st0" cx="509" cy="118.9" r="6.6"/>
<circle class="st0" cx="509" cy="63" r="6.6"/>
<circle class="st0" cx="509" cy="342.3" r="6.6"/>
<circle class="st0" cx="509" cy="454" r="6.6"/>
<circle class="st0" cx="509" cy="398.1" r="6.6"/>
<circle class="st0" cx="509" cy="174.7" r="6.6"/>
<circle class="st0" cx="509" cy="286.4" r="6.6"/>
<circle class="st0" cx="509" cy="230.6" r="6.6"/>
<circle class="st0" cx="341.4" cy="7.1" r="6.6"/>
<circle class="st0" cx="341.4" cy="118.9" r="6.6"/>
<circle class="st0" cx="341.4" cy="63" r="6.6"/>
<circle class="st0" cx="341.4" cy="342.3" r="6.6"/>
<circle class="st0" cx="341.4" cy="454" r="6.6"/>
<circle class="st0" cx="341.4" cy="398.1" r="6.6"/>
<circle class="st0" cx="341.4" cy="174.7" r="6.6"/>
<circle class="st0" cx="341.4" cy="286.4" r="6.6"/>
<circle class="st0" cx="341.4" cy="230.6" r="6.6"/>
<circle class="st0" cx="397.2" cy="7.1" r="6.6"/>
<circle class="st0" cx="397.2" cy="118.9" r="6.6"/>
<circle class="st0" cx="397.2" cy="63" r="6.6"/>
<circle class="st0" cx="397.2" cy="342.3" r="6.6"/>
<circle class="st0" cx="397.2" cy="454" r="6.6"/>
<circle class="st0" cx="397.2" cy="398.1" r="6.6"/>
<circle class="st0" cx="397.2" cy="174.7" r="6.6"/>
<circle class="st0" cx="397.2" cy="286.4" r="6.6"/>
<circle class="st0" cx="397.2" cy="230.6" r="6.6"/>
<circle class="st0" cx="453.1" cy="7.1" r="6.6"/>
<circle class="st0" cx="453.1" cy="118.9" r="6.6"/>
<circle class="st0" cx="453.1" cy="63" r="6.6"/>
<circle class="st0" cx="453.1" cy="342.3" r="6.6"/>
<circle class="st0" cx="453.1" cy="454" r="6.6"/>
<circle class="st0" cx="453.1" cy="398.1" r="6.6"/>
<circle class="st0" cx="453.1" cy="174.7" r="6.6"/>
<circle class="st0" cx="453.1" cy="286.4" r="6.6"/>
<circle class="st0" cx="453.1" cy="230.6" r="6.6"/>
<circle class="st0" cx="285.5" cy="7.1" r="6.6"/>
<circle class="st0" cx="285.5" cy="118.9" r="6.6"/>
<circle class="st0" cx="285.5" cy="63" r="6.6"/>
<circle class="st0" cx="285.5" cy="342.3" r="6.6"/>
<circle class="st0" cx="285.5" cy="454" r="6.6"/>
<circle class="st0" cx="285.5" cy="398.1" r="6.6"/>
<circle class="st0" cx="285.5" cy="174.7" r="6.6"/>
<circle class="st0" cx="285.5" cy="286.4" r="6.6"/>
<circle class="st0" cx="285.5" cy="230.6" r="6.6"/>
<circle class="st0" cx="118" cy="7.1" r="6.6"/>
<circle class="st0" cx="118" cy="118.9" r="6.6"/>
<ellipse transform="matrix(0.9993 -3.837508e-02 3.837508e-02 0.9993 -2.3292 4.5725)" class="st0" cx="117.9" cy="63" rx="6.6" ry="6.6"/>
<circle class="st0" cx="118" cy="342.3" r="6.6"/>
<circle class="st0" cx="118" cy="454" r="6.6"/>
<circle class="st0" cx="118" cy="398.1" r="6.6"/>
<circle class="st0" cx="118" cy="174.7" r="6.6"/>
<circle class="st0" cx="118" cy="286.4" r="6.6"/>
<circle class="st0" cx="118" cy="230.6" r="6.6"/>
<circle class="st0" cx="173.8" cy="7.1" r="6.6"/>
<circle class="st0" cx="173.8" cy="118.9" r="6.6"/>
<ellipse transform="matrix(0.9993 -3.837508e-02 3.837508e-02 0.9993 -2.2882 6.7139)" class="st0" cx="173.7" cy="63" rx="6.6" ry="6.6"/>
<circle class="st0" cx="173.8" cy="342.3" r="6.6"/>
<circle class="st0" cx="173.8" cy="454" r="6.6"/>
<circle class="st0" cx="173.8" cy="398.1" r="6.6"/>
<circle class="st0" cx="173.8" cy="174.7" r="6.6"/>
<circle class="st0" cx="173.8" cy="286.4" r="6.6"/>
<circle class="st0" cx="173.8" cy="230.6" r="6.6"/>
<circle class="st0" cx="6.2" cy="7.1" r="6.6"/>
<circle class="st0" cx="6.2" cy="118.9" r="6.6"/>
<ellipse transform="matrix(0.9993 -3.837508e-02 3.837508e-02 0.9993 -2.4117 0.282)" class="st0" cx="6.1" cy="63" rx="6.6" ry="6.6"/>
<circle class="st0" cx="6.2" cy="342.3" r="6.6"/>
<circle class="st0" cx="6.2" cy="454" r="6.6"/>
<circle class="st0" cx="6.2" cy="398.1" r="6.6"/>
<circle class="st0" cx="6.2" cy="174.7" r="6.6"/>
<circle class="st0" cx="6.2" cy="286.4" r="6.6"/>
<circle class="st0" cx="6.2" cy="230.6" r="6.6"/>
<circle class="st0" cx="62.1" cy="7.1" r="6.6"/>
<circle class="st0" cx="62.1" cy="118.9" r="6.6"/>
<ellipse transform="matrix(0.9993 -3.837508e-02 3.837508e-02 0.9993 -2.3705 2.4273)" class="st0" cx="62" cy="63" rx="6.6" ry="6.6"/>
<circle class="st0" cx="62.1" cy="342.3" r="6.6"/>
<circle class="st0" cx="62.1" cy="454" r="6.6"/>
<circle class="st0" cx="62.1" cy="398.1" r="6.6"/>
<circle class="st0" cx="62.1" cy="174.7" r="6.6"/>
<circle class="st0" cx="62.1" cy="286.4" r="6.6"/>
<circle class="st0" cx="62.1" cy="230.6" r="6.6"/>
<circle class="st0" cx="229.7" cy="7.1" r="6.6"/>
<circle class="st0" cx="229.7" cy="118.9" r="6.6"/>
<ellipse transform="matrix(0.9993 -3.837508e-02 3.837508e-02 0.9993 -2.247 8.8592)" class="st0" cx="229.6" cy="63" rx="6.6" ry="6.6"/>
<circle class="st0" cx="229.7" cy="342.3" r="6.6"/>
<circle class="st0" cx="229.7" cy="454" r="6.6"/>
<circle class="st0" cx="229.7" cy="398.1" r="6.6"/>
<circle class="st0" cx="229.7" cy="174.7" r="6.6"/>
<circle class="st0" cx="229.7" cy="286.4" r="6.6"/>
<circle class="st0" cx="229.7" cy="230.6" r="6.6"/>
</svg>
